<svg width="75" height="78" viewBox="0 0 75 78" fill="none" xmlns="http://www.w3.org/2000/svg">
<g filter="url(#filter0_d_14_208)">
<path fill-rule="evenodd" clip-rule="evenodd" d="M35.1357 4.59429C35.1161 4.6061 35.0962 4.61761 35.076 4.62881L8.771 19.2373C8.77067 19.2374 8.77034 19.2376 8.77001 19.2378C8.53675 19.3678 8.34239 19.5576 8.20702 19.7878C8.07146 20.0183 7.99999 20.2809 8 20.5483V49.3736C8.00079 50.2645 8.23962 51.1391 8.69179 51.9068C9.14408 52.6747 9.79338 53.3077 10.5725 53.7404L35.0725 67.3554C35.8151 67.7678 36.6506 67.9842 37.5 67.9842C38.3494 67.9842 39.1849 67.7678 39.9275 67.3554L64.427 53.7406C65.2065 53.3078 65.8565 52.6741 66.3088 51.9057C66.7611 51.1375 66.9997 50.2623 67 49.3708C67 49.3707 67 49.371 67 49.3708V20.5483C67 20.2809 66.9285 20.0183 66.793 19.7878C66.6574 19.5573 66.4628 19.3673 66.2292 19.2374C66.2291 19.2373 66.2292 19.2374 66.2292 19.2374L39.9275 4.62882C39.9275 4.6288 39.9275 4.62884 39.9275 4.62882C39.1849 4.21645 38.3494 4 37.5 4C36.6746 4 35.8624 4.20434 35.1357 4.59429ZM33.0589 1.17355C33.0824 1.15922 33.1063 1.14532 33.1305 1.13187C34.4672 0.38954 35.971 0 37.5 0C39.029 0 40.5328 0.38954 41.8695 1.13187L68.173 15.7414C69.0299 16.218 69.7439 16.9149 70.2409 17.7601C70.738 18.6052 71 19.5679 71 20.5484V49.3708C70.9996 50.9757 70.5701 52.5518 69.7559 53.9349C68.9418 55.318 67.7726 56.4581 66.3695 57.2373L41.87 70.852C40.5333 71.5944 39.029 71.9842 37.5 71.9842C35.971 71.9842 34.4672 71.5947 33.1305 70.8523L8.6305 57.2373C7.2281 56.4585 6.05935 55.319 5.24522 53.9368C4.43109 52.5546 4.00118 50.98 4 49.3758L4 20.5484C4 20.5484 4 20.5485 4 20.5484C3.99997 19.568 4.26205 18.6052 4.75908 17.7601C5.25613 16.9149 5.97008 16.2179 6.827 15.7414L33.0589 1.17355Z" fill="url(#paint0_linear_14_208)"/>
<path fill-rule="evenodd" clip-rule="evenodd" d="M20.0017 8.76907C20.5381 7.8035 21.7557 7.45561 22.7213 7.99204L54.2213 25.492C54.8562 25.8448 55.25 26.514 55.25 27.2404V39.4904C55.25 40.5949 54.3546 41.4904 53.25 41.4904C52.1454 41.4904 51.25 40.5949 51.25 39.4904V28.4172L20.7787 11.4887C19.8131 10.9522 19.4653 9.73464 20.0017 8.76907ZM14.753 36.1647C15.2907 35.1999 16.5088 34.8536 17.4737 35.3914L27.9737 41.2434C28.9385 41.7811 29.2847 42.9992 28.747 43.964C28.2093 44.9289 26.9912 45.2751 26.0263 44.7374L15.5263 38.8853C14.5615 38.3476 14.2153 37.1295 14.753 36.1647Z" fill="url(#paint1_linear_14_208)"/>
<path fill-rule="evenodd" clip-rule="evenodd" d="M35.5 37.1672L5.02869 20.2387L6.97126 16.7421L37.5 33.7025L68.0287 16.7421L69.9713 20.2387L39.5 37.1672V70.9904H35.5V37.1672Z" fill="url(#paint2_linear_14_208)"/>
</g>
<defs>
<filter id="filter0_d_14_208" x="0" y="0" width="75" height="79.9841" filterUnits="userSpaceOnUse" color-interpolation-filters="sRGB">
<feFlood flood-opacity="0" result="BackgroundImageFix"/>
<feColorMatrix in="SourceAlpha" type="matrix" values="0 0 0 0 0 0 0 0 0 0 0 0 0 0 0 0 0 0 127 0" result="hardAlpha"/>
<feOffset dy="4"/>
<feGaussianBlur stdDeviation="2"/>
<feComposite in2="hardAlpha" operator="out"/>
<feColorMatrix type="matrix" values="0 0 0 0 0 0 0 0 0 0 0 0 0 0 0 0 0 0 0.25 0"/>
<feBlend mode="normal" in2="BackgroundImageFix" result="effect1_dropShadow_14_208"/>
<feBlend mode="normal" in="SourceGraphic" in2="effect1_dropShadow_14_208" result="shape"/>
</filter>
<linearGradient id="paint0_linear_14_208" x1="4" y1="35.9921" x2="71" y2="35.9921" gradientUnits="userSpaceOnUse">
<stop stop-color="#2AF598"/>
<stop offset="1" stop-color="#009EFD"/>
</linearGradient>
<linearGradient id="paint1_linear_14_208" x1="14.4996" y1="26.3654" x2="55.25" y2="26.3654" gradientUnits="userSpaceOnUse">
<stop stop-color="#2AF598"/>
<stop offset="1" stop-color="#009EFD"/>
</linearGradient>
<linearGradient id="paint2_linear_14_208" x1="5.02869" y1="43.8662" x2="69.9713" y2="43.8662" gradientUnits="userSpaceOnUse">
<stop stop-color="#2AF598"/>
<stop offset="1" stop-color="#009EFD"/>
</linearGradient>
</defs>
</svg>
