<svg width="59" height="59" viewBox="0 0 59 59" fill="none" xmlns="http://www.w3.org/2000/svg">
<path fill-rule="evenodd" clip-rule="evenodd" d="M29.3333 0C13.1333 0 0 13.1333 0 29.3333C0 45.5333 13.1333 58.6667 29.3333 58.6667C45.5333 58.6667 58.6667 45.5333 58.6667 29.3333C58.6667 13.1333 45.5333 0 29.3333 0ZM32 40C32 40.7072 31.719 41.3855 31.219 41.8856C30.7189 42.3857 30.0406 42.6667 29.3333 42.6667C28.6261 42.6667 27.9478 42.3857 27.4477 41.8856C26.9476 41.3855 26.6667 40.7072 26.6667 40V32H18.6667C17.9594 32 17.2811 31.719 16.781 31.219C16.281 30.7189 16 30.0406 16 29.3333C16 28.6261 16.281 27.9478 16.781 27.4477C17.2811 26.9476 17.9594 26.6667 18.6667 26.6667H26.6667V18.6667C26.6667 17.9594 26.9476 17.2811 27.4477 16.781C27.9478 16.281 28.6261 16 29.3333 16C30.0406 16 30.7189 16.281 31.219 16.781C31.719 17.2811 32 17.9594 32 18.6667V26.6667H40C40.7072 26.6667 41.3855 26.9476 41.8856 27.4477C42.3857 27.9478 42.6667 28.6261 42.6667 29.3333C42.6667 30.0406 42.3857 30.7189 41.8856 31.219C41.3855 31.719 40.7072 32 40 32H32V40Z" fill="url(#paint0_linear_11_56)"/>
<defs>
<linearGradient id="paint0_linear_11_56" x1="0" y1="29.3333" x2="58.6667" y2="29.3333" gradientUnits="userSpaceOnUse">
<stop stop-color="#2AF598"/>
<stop offset="1" stop-color="#009EFD"/>
</linearGradient>
</defs>
</svg>
