<svg width="63" height="69" viewBox="0 0 63 69" fill="none" xmlns="http://www.w3.org/2000/svg">
<path d="M31.2585 1.97242C31.6919 1.43006 32.2286 0.979059 32.8376 0.645521C33.4465 0.311983 34.1155 0.102533 34.8059 0.0292935C35.4963 -0.0439458 36.1944 0.0204806 36.8597 0.218844C37.525 0.417207 38.1444 0.745567 38.682 1.18492L55.8075 15.1709C56.7493 15.9399 57.395 17.0119 57.6344 18.204C57.8737 19.396 57.6919 20.6342 57.12 21.7072C55.6227 21.2496 54.0656 21.0178 52.5 21.0194H50.925L52.4895 19.2344L43.47 11.8687L36.0308 21.0247H29.2635L39.4012 8.55067L35.3587 5.24842L22.7692 21.0194H16.0493L31.2585 1.97242ZM44.625 47.2694C43.9288 47.2694 43.2611 47.546 42.7688 48.0383C42.2766 48.5305 42 49.1982 42 49.8944C42 50.5906 42.2766 51.2583 42.7688 51.7506C43.2611 52.2429 43.9288 52.5194 44.625 52.5194H49.875C50.5712 52.5194 51.2389 52.2429 51.7312 51.7506C52.2234 51.2583 52.5 50.5906 52.5 49.8944C52.5 49.1982 52.2234 48.5305 51.7312 48.0383C51.2389 47.546 50.5712 47.2694 49.875 47.2694H44.625ZM5.25 23.6444C5.25 22.9482 5.52656 22.2805 6.01885 21.7883C6.51113 21.296 7.17881 21.0194 7.875 21.0194H10.8045L14.9783 15.7694H7.875C5.78642 15.7694 3.78338 16.5991 2.30653 18.0759C0.829685 19.5528 0 21.5558 0 23.6444V55.1444C0 58.6254 1.38281 61.9638 3.84422 64.4252C6.30564 66.8866 9.64403 68.2694 13.125 68.2694H52.5C55.2848 68.2694 57.9555 67.1632 59.9246 65.194C61.8937 63.2249 63 60.5542 63 57.7694V36.7694C63 33.9846 61.8937 31.3139 59.9246 29.3448C57.9555 27.3757 55.2848 26.2694 52.5 26.2694H7.875C7.17881 26.2694 6.51113 25.9929 6.01885 25.5006C5.52656 25.0083 5.25 24.3406 5.25 23.6444ZM5.25 55.1444V31.0732C6.069 31.3619 6.95625 31.5194 7.875 31.5194H52.5C53.8924 31.5194 55.2277 32.0725 56.2123 33.0571C57.1969 34.0417 57.75 35.377 57.75 36.7694V57.7694C57.75 59.1618 57.1969 60.4972 56.2123 61.4817C55.2277 62.4663 53.8924 63.0194 52.5 63.0194H13.125C11.0364 63.0194 9.03338 62.1897 7.55653 60.7129C6.07969 59.236 5.25 57.233 5.25 55.1444Z" fill="url(#paint0_linear_14_217)"/>
<defs>
<linearGradient id="paint0_linear_14_217" x1="0" y1="34.1347" x2="63" y2="34.1347" gradientUnits="userSpaceOnUse">
<stop stop-color="#2AF598"/>
<stop offset="1" stop-color="#009EFD"/>
</linearGradient>
</defs>
</svg>
