<svg width="24" height="21" viewBox="0 0 24 21" fill="none" xmlns="http://www.w3.org/2000/svg">
<path fill-rule="evenodd" clip-rule="evenodd" d="M0 10.5019C0 10.1041 0.158036 9.72254 0.43934 9.44124C0.720645 9.15993 1.10218 9.0019 1.5 9.0019H18.879L12.438 2.5639C12.1563 2.28224 11.9981 1.90022 11.9981 1.5019C11.9981 1.10357 12.1563 0.721555 12.438 0.439895C12.7197 0.158235 13.1017 0 13.5 0C13.8983 0 14.2803 0.158235 14.562 0.439895L23.562 9.4399C23.7017 9.57923 23.8125 9.74476 23.8881 9.92699C23.9638 10.1092 24.0027 10.3046 24.0027 10.5019C24.0027 10.6992 23.9638 10.8946 23.8881 11.0768C23.8125 11.259 23.7017 11.4246 23.562 11.5639L14.562 20.5639C14.2803 20.8456 13.8983 21.0038 13.5 21.0038C13.1017 21.0038 12.7197 20.8456 12.438 20.5639C12.1563 20.2822 11.9981 19.9002 11.9981 19.5019C11.9981 19.1036 12.1563 18.7216 12.438 18.4399L18.879 12.0019H1.5C1.10218 12.0019 0.720645 11.8439 0.43934 11.5626C0.158036 11.2813 0 10.8997 0 10.5019Z" fill="#4F4F4F"/>
</svg>
