<svg width="22" height="22" viewBox="0 0 22 22" fill="none" xmlns="http://www.w3.org/2000/svg">
<path fill-rule="evenodd" clip-rule="evenodd" d="M5.98029 0.737421C7.15563 0.250576 8.41537 0 9.68755 0C10.9597 0 12.2195 0.250576 13.3948 0.737421C14.5702 1.22427 15.6381 1.93785 16.5377 2.83742C17.4373 3.73699 18.1508 4.80494 18.6377 5.98029C19.1245 7.15564 19.3751 8.41537 19.3751 9.68755C19.3751 10.9597 19.1245 12.2195 18.6377 13.3948C18.3435 14.1051 17.9665 14.7761 17.5157 15.3944L21.2745 19.1532C21.8603 19.739 21.8603 20.6887 21.2745 21.2745C20.6887 21.8603 19.739 21.8603 19.1532 21.2745L15.3944 17.5158C13.7474 18.7165 11.7514 19.3751 9.68755 19.3751C7.11825 19.3751 4.65419 18.3545 2.83742 16.5377C1.02065 14.7209 0 12.2569 0 9.68755C0 7.11825 1.02065 4.65419 2.83742 2.83742C3.73699 1.93785 4.80494 1.22427 5.98029 0.737421ZM14.4164 14.4164C15.0374 13.7954 15.53 13.0581 15.866 12.2468C16.2021 11.4354 16.3751 10.5658 16.3751 9.68755C16.3751 8.80933 16.2021 7.93971 15.866 7.12834C15.53 6.31697 15.0374 5.57973 14.4164 4.95874C13.7954 4.33774 13.0581 3.84514 12.2468 3.50906C11.4354 3.17298 10.5658 3 9.68755 3C8.80933 3 7.93971 3.17298 7.12834 3.50906C6.31697 3.84514 5.57974 4.33774 4.95874 4.95874C3.70458 6.2129 3 7.9139 3 9.68755C3 11.4612 3.70458 13.1622 4.95874 14.4164C6.2129 15.6705 7.9139 16.3751 9.68755 16.3751C11.4612 16.3751 13.1622 15.6705 14.4164 14.4164Z" fill="white"/>
</svg>
